<mxfile host="app.diagrams.net" modified="2021-01-18T06:19:26.753Z" agent="5.0 (Windows NT 10.0; Win64; x64) AppleWebKit/537.36 (KHTML, like Gecko) Chrome/87.0.4280.141 Safari/537.36" etag="rAUapaRgsbo9fPyTW4so" version="14.1.8" type="github">
  <diagram id="-ODYIQmPpBgDqDw3wvfz" name="第 1 页">
    <mxGraphModel dx="1215" dy="568" grid="1" gridSize="10" guides="1" tooltips="1" connect="1" arrows="1" fold="1" page="1" pageScale="1" pageWidth="827" pageHeight="1169" math="0" shadow="0">
      <root>
        <mxCell id="0" />
        <mxCell id="1" parent="0" />
        <mxCell id="467uiXqS4k6OHDBw6vDY-1" value="著作" style="whiteSpace=wrap;html=1;align=center;strokeWidth=2;fontSize=15;" vertex="1" parent="1">
          <mxGeometry x="340" y="195" width="100" height="40" as="geometry" />
        </mxCell>
        <mxCell id="467uiXqS4k6OHDBw6vDY-2" value="作者" style="ellipse;whiteSpace=wrap;html=1;align=center;strokeWidth=2;fontSize=15;" vertex="1" parent="1">
          <mxGeometry x="400" y="20" width="100" height="50" as="geometry" />
        </mxCell>
        <mxCell id="467uiXqS4k6OHDBw6vDY-3" value="出版社" style="ellipse;whiteSpace=wrap;html=1;align=center;strokeWidth=2;fontSize=15;" vertex="1" parent="1">
          <mxGeometry x="270" y="370" width="100" height="50" as="geometry" />
        </mxCell>
        <mxCell id="467uiXqS4k6OHDBw6vDY-4" value="总字数" style="ellipse;whiteSpace=wrap;html=1;align=center;strokeWidth=2;fontSize=15;" vertex="1" parent="1">
          <mxGeometry x="480" y="310" width="100" height="50" as="geometry" />
        </mxCell>
        <mxCell id="467uiXqS4k6OHDBw6vDY-5" value="编著形式" style="ellipse;whiteSpace=wrap;html=1;align=center;strokeWidth=2;fontSize=15;" vertex="1" parent="1">
          <mxGeometry x="514" y="150" width="100" height="50" as="geometry" />
        </mxCell>
        <mxCell id="467uiXqS4k6OHDBw6vDY-6" value="著作名称" style="ellipse;whiteSpace=wrap;html=1;align=center;strokeWidth=2;fontSize=15;" vertex="1" parent="1">
          <mxGeometry x="500" y="70" width="100" height="50" as="geometry" />
        </mxCell>
        <mxCell id="467uiXqS4k6OHDBw6vDY-7" value="起止页码" style="ellipse;whiteSpace=wrap;html=1;align=center;strokeWidth=2;fontSize=15;" vertex="1" parent="1">
          <mxGeometry x="170" y="150" width="100" height="50" as="geometry" />
        </mxCell>
        <mxCell id="467uiXqS4k6OHDBw6vDY-8" value="编写字数" style="ellipse;whiteSpace=wrap;html=1;align=center;strokeWidth=2;fontSize=15;" vertex="1" parent="1">
          <mxGeometry x="170" y="70" width="100" height="50" as="geometry" />
        </mxCell>
        <mxCell id="467uiXqS4k6OHDBw6vDY-9" value="出版年月" style="ellipse;whiteSpace=wrap;html=1;align=center;strokeWidth=2;fontSize=15;" vertex="1" parent="1">
          <mxGeometry x="180" y="310" width="100" height="50" as="geometry" />
        </mxCell>
        <mxCell id="467uiXqS4k6OHDBw6vDY-10" value="书号" style="ellipse;whiteSpace=wrap;html=1;align=center;strokeWidth=2;fontSize=15;" vertex="1" parent="1">
          <mxGeometry x="400" y="370" width="100" height="50" as="geometry" />
        </mxCell>
        <mxCell id="467uiXqS4k6OHDBw6vDY-11" value="" style="endArrow=none;html=1;rounded=0;strokeWidth=2;entryX=0.5;entryY=1;entryDx=0;entryDy=0;exitX=0.5;exitY=0;exitDx=0;exitDy=0;fontSize=15;" edge="1" parent="1" source="467uiXqS4k6OHDBw6vDY-3" target="467uiXqS4k6OHDBw6vDY-1">
          <mxGeometry relative="1" as="geometry">
            <mxPoint x="640" y="250" as="sourcePoint" />
            <mxPoint x="800" y="250" as="targetPoint" />
          </mxGeometry>
        </mxCell>
        <mxCell id="467uiXqS4k6OHDBw6vDY-12" value="" style="endArrow=none;html=1;rounded=0;strokeWidth=2;exitX=0.5;exitY=1;exitDx=0;exitDy=0;entryX=0.5;entryY=0;entryDx=0;entryDy=0;fontSize=15;" edge="1" parent="1" source="467uiXqS4k6OHDBw6vDY-1" target="467uiXqS4k6OHDBw6vDY-10">
          <mxGeometry relative="1" as="geometry">
            <mxPoint x="580" y="270" as="sourcePoint" />
            <mxPoint x="740" y="270" as="targetPoint" />
          </mxGeometry>
        </mxCell>
        <mxCell id="467uiXqS4k6OHDBw6vDY-13" value="" style="endArrow=none;html=1;rounded=0;strokeWidth=2;exitX=0.75;exitY=1;exitDx=0;exitDy=0;fontSize=15;" edge="1" parent="1" source="467uiXqS4k6OHDBw6vDY-1" target="467uiXqS4k6OHDBw6vDY-4">
          <mxGeometry relative="1" as="geometry">
            <mxPoint x="400" y="240" as="sourcePoint" />
            <mxPoint x="474" y="380" as="targetPoint" />
          </mxGeometry>
        </mxCell>
        <mxCell id="467uiXqS4k6OHDBw6vDY-14" value="" style="endArrow=none;html=1;rounded=0;strokeWidth=2;entryX=0.25;entryY=1;entryDx=0;entryDy=0;exitX=1;exitY=0;exitDx=0;exitDy=0;fontSize=15;" edge="1" parent="1" source="467uiXqS4k6OHDBw6vDY-9" target="467uiXqS4k6OHDBw6vDY-1">
          <mxGeometry relative="1" as="geometry">
            <mxPoint x="50" y="270" as="sourcePoint" />
            <mxPoint x="210" y="270" as="targetPoint" />
          </mxGeometry>
        </mxCell>
        <mxCell id="467uiXqS4k6OHDBw6vDY-15" value="" style="endArrow=none;html=1;rounded=0;strokeWidth=2;entryX=0;entryY=0.25;entryDx=0;entryDy=0;exitX=1;exitY=0.5;exitDx=0;exitDy=0;fontSize=15;" edge="1" parent="1" source="467uiXqS4k6OHDBw6vDY-7" target="467uiXqS4k6OHDBw6vDY-1">
          <mxGeometry relative="1" as="geometry">
            <mxPoint x="120" y="250" as="sourcePoint" />
            <mxPoint x="280" y="250" as="targetPoint" />
          </mxGeometry>
        </mxCell>
        <mxCell id="467uiXqS4k6OHDBw6vDY-16" value="" style="endArrow=none;html=1;rounded=0;strokeWidth=2;entryX=1;entryY=0.25;entryDx=0;entryDy=0;fontSize=15;" edge="1" parent="1" source="467uiXqS4k6OHDBw6vDY-5" target="467uiXqS4k6OHDBw6vDY-1">
          <mxGeometry relative="1" as="geometry">
            <mxPoint x="310" y="150" as="sourcePoint" />
            <mxPoint x="470" y="150" as="targetPoint" />
          </mxGeometry>
        </mxCell>
        <mxCell id="467uiXqS4k6OHDBw6vDY-17" value="" style="endArrow=none;html=1;rounded=0;strokeWidth=2;entryX=0;entryY=0.5;entryDx=0;entryDy=0;exitX=0.75;exitY=0;exitDx=0;exitDy=0;fontSize=15;" edge="1" parent="1" source="467uiXqS4k6OHDBw6vDY-1" target="467uiXqS4k6OHDBw6vDY-6">
          <mxGeometry relative="1" as="geometry">
            <mxPoint x="520" y="225" as="sourcePoint" />
            <mxPoint x="450" y="225" as="targetPoint" />
          </mxGeometry>
        </mxCell>
        <mxCell id="467uiXqS4k6OHDBw6vDY-18" value="" style="endArrow=none;html=1;rounded=0;strokeWidth=2;entryX=0.25;entryY=0;entryDx=0;entryDy=0;exitX=1;exitY=0.5;exitDx=0;exitDy=0;fontSize=15;" edge="1" parent="1" source="467uiXqS4k6OHDBw6vDY-8" target="467uiXqS4k6OHDBw6vDY-1">
          <mxGeometry relative="1" as="geometry">
            <mxPoint x="425" y="205" as="sourcePoint" />
            <mxPoint x="510" y="135" as="targetPoint" />
          </mxGeometry>
        </mxCell>
        <mxCell id="467uiXqS4k6OHDBw6vDY-19" value="" style="endArrow=none;html=1;rounded=0;strokeWidth=2;exitX=0.5;exitY=0;exitDx=0;exitDy=0;fontSize=15;entryX=0.5;entryY=1;entryDx=0;entryDy=0;" edge="1" parent="1" source="467uiXqS4k6OHDBw6vDY-1" target="467uiXqS4k6OHDBw6vDY-2">
          <mxGeometry relative="1" as="geometry">
            <mxPoint x="435" y="215" as="sourcePoint" />
            <mxPoint x="400" y="110" as="targetPoint" />
          </mxGeometry>
        </mxCell>
        <mxCell id="467uiXqS4k6OHDBw6vDY-20" value="所属部门" style="ellipse;whiteSpace=wrap;html=1;align=center;strokeWidth=2;fontSize=15;" vertex="1" parent="1">
          <mxGeometry x="280" y="20" width="100" height="50" as="geometry" />
        </mxCell>
        <mxCell id="467uiXqS4k6OHDBw6vDY-21" value="" style="endArrow=none;html=1;rounded=0;strokeWidth=2;exitX=0.5;exitY=0;exitDx=0;exitDy=0;fontSize=15;entryX=0.5;entryY=1;entryDx=0;entryDy=0;" edge="1" parent="1" source="467uiXqS4k6OHDBw6vDY-1" target="467uiXqS4k6OHDBw6vDY-20">
          <mxGeometry relative="1" as="geometry">
            <mxPoint x="400" y="205" as="sourcePoint" />
            <mxPoint x="474" y="80" as="targetPoint" />
          </mxGeometry>
        </mxCell>
        <mxCell id="467uiXqS4k6OHDBw6vDY-22" value="本人排名" style="ellipse;whiteSpace=wrap;html=1;align=center;strokeWidth=2;fontSize=15;" vertex="1" parent="1">
          <mxGeometry x="170" y="230" width="100" height="50" as="geometry" />
        </mxCell>
        <mxCell id="467uiXqS4k6OHDBw6vDY-23" value="著作类别" style="ellipse;whiteSpace=wrap;html=1;align=center;strokeWidth=2;fontSize=15;" vertex="1" parent="1">
          <mxGeometry x="514" y="230" width="100" height="50" as="geometry" />
        </mxCell>
        <mxCell id="467uiXqS4k6OHDBw6vDY-24" value="" style="endArrow=none;html=1;rounded=0;strokeWidth=2;entryX=1;entryY=0.5;entryDx=0;entryDy=0;fontSize=15;exitX=0;exitY=0.75;exitDx=0;exitDy=0;" edge="1" parent="1" source="467uiXqS4k6OHDBw6vDY-1" target="467uiXqS4k6OHDBw6vDY-22">
          <mxGeometry relative="1" as="geometry">
            <mxPoint x="310" y="250" as="sourcePoint" />
            <mxPoint x="350" y="225" as="targetPoint" />
          </mxGeometry>
        </mxCell>
        <mxCell id="467uiXqS4k6OHDBw6vDY-25" value="" style="endArrow=none;html=1;rounded=0;strokeWidth=2;entryX=1;entryY=0.75;entryDx=0;entryDy=0;fontSize=15;exitX=0;exitY=0.5;exitDx=0;exitDy=0;" edge="1" parent="1" source="467uiXqS4k6OHDBw6vDY-23" target="467uiXqS4k6OHDBw6vDY-1">
          <mxGeometry relative="1" as="geometry">
            <mxPoint x="528.9920374292203" y="195.8890232026081" as="sourcePoint" />
            <mxPoint x="450" y="215" as="targetPoint" />
          </mxGeometry>
        </mxCell>
      </root>
    </mxGraphModel>
  </diagram>
</mxfile>
